<?xml version="1.0" standalone="no"?>
<!DOCTYPE svg PUBLIC "-//W3C//DTD SVG 20010904//EN"
 "http://www.w3.org/TR/2001/REC-SVG-20010904/DTD/svg10.dtd">
<svg version="1.0" xmlns="http://www.w3.org/2000/svg"
 width="512.000000pt" height="512.000000pt" viewBox="0 0 512.000000 512.000000"
 preserveAspectRatio="xMidYMid meet">

<g transform="translate(0.000000,512.000000) scale(0.100000,-0.100000)"
fill="#ff0000" stroke="none">
<path d="M2315 5109 c-800 -83 -1501 -518 -1927 -1196 -487 -774 -516 -1777
-75 -2578 200 -364 487 -676 841 -913 238 -159 600 -311 876 -366 214 -43 295
-51 530 -51 236 0 333 10 532 51 879 183 1616 843 1897 1699 93 282 126 493
126 805 0 301 -32 513 -116 775 -124 390 -330 728 -622 1024 -399 404 -893
653 -1462 737 -123 18 -478 26 -600 13z m1385 -2086 l0 -728 -307 -307 -308
-308 -235 0 -235 0 -155 -155 -155 -155 -157 0 -158 0 0 155 0 155 -285 0
-285 0 0 832 0 832 76 203 77 203 1063 0 1064 0 0 -727z"/>
<path d="M1780 2795 l0 -755 235 0 235 0 0 -152 0 -153 153 153 152 152 285 0
285 0 183 183 182 182 0 573 0 572 -855 0 -855 0 0 -755z m780 25 l0 -310
-105 0 -105 0 0 310 0 310 105 0 105 0 0 -310z m570 0 l0 -310 -105 0 -105 0
0 310 0 310 105 0 105 0 0 -310z"/>
</g>
</svg>
